<?xml version="1.0" encoding="UTF-8" standalone="no"?>
<!-- Generator: Adobe Illustrator 15.0.2, SVG Export Plug-In . SVG Version: 6.00 Build 0)  -->

<svg
   xmlns:dc="http://purl.org/dc/elements/1.1/"
   xmlns:cc="http://creativecommons.org/ns#"
   xmlns:rdf="http://www.w3.org/1999/02/22-rdf-syntax-ns#"
   xmlns:svg="http://www.w3.org/2000/svg"
   xmlns="http://www.w3.org/2000/svg"
   xmlns:sodipodi="http://sodipodi.sourceforge.net/DTD/sodipodi-0.dtd"
   xmlns:inkscape="http://www.inkscape.org/namespaces/inkscape"
   id="Layer_1"
   enable-background="new 0 0 279.333 253.333"
   xml:space="preserve"
   viewBox="0 0 129.84956 68.771215"
   version="1.1"
   y="0px"
   x="0px"
   inkscape:version="0.48.4 r9939"
   width="100%"
   height="100%"
   sodipodi:docname="tikigiki-abstract-element-009.svg"><defs
     id="defs3017" /><sodipodi:namedview
     pagecolor="#ffffff"
     bordercolor="#666666"
     borderopacity="1"
     objecttolerance="10"
     gridtolerance="10"
     guidetolerance="10"
     inkscape:pageopacity="0"
     inkscape:pageshadow="2"
     inkscape:window-width="1366"
     inkscape:window-height="714"
     id="namedview3015"
     showgrid="false"
     showguides="true"
     inkscape:guide-bbox="true"
     fit-margin-top="0"
     fit-margin-left="0"
     fit-margin-right="0"
     fit-margin-bottom="0"
     inkscape:zoom="4.2868477"
     inkscape:cx="64.435311"
     inkscape:cy="39.197327"
     inkscape:window-x="0"
     inkscape:window-y="28"
     inkscape:window-maximized="1"
     inkscape:current-layer="Layer_1"><sodipodi:guide
       orientation="1,0"
       position="129.80863,48.640377"
       id="guide3860" /><sodipodi:guide
       orientation="0,1"
       position="49.643917,68.104237"
       id="guide3862" /><sodipodi:guide
       orientation="1,0"
       position="0.48942732,53.918707"
       id="guide3864" /></sodipodi:namedview><g
     id="g3025"
     transform="matrix(0.15029891,0,0,0.17930428,-0.02561252,-2.1233213)"><polygon
       transform="matrix(0.8660254,0.5,-0.5,0.8660254,86.070907,-67.828456)"
       style="fill:#b2ce41;fill-opacity:1"
       id="polygon3007"
       points="211.3,126.67 170.31,241.49 128.37,126.67 170.31,11.842 " /><polygon
       transform="translate(-94.064308,0.2399993)"
       style="fill:#000000;fill-opacity:1"
       id="polygon3005"
       points="226.65,11.842 267.64,126.67 226.65,241.49 184.7,126.67 " /><polygon
       id="polygon3009"
       points="154.97,126.67 113.98,241.49 72.031,126.67 113.98,11.842 "
       style="fill:#b2ce41" /><polygon
       style="fill:#000000;fill-opacity:1"
       transform="matrix(0.8660254,-0.5,0.5,0.8660254,-55.674409,45.552276)"
       id="polygon3011"
       points="57.647,241.49 15.696,126.67 57.647,11.842 98.633,126.67 " /></g><metadata
     id="metadata3013"><rdf:RDF><cc:Work><dc:format>image/svg+xml</dc:format><dc:type
           rdf:resource="http://purl.org/dc/dcmitype/StillImage" /><cc:license
           rdf:resource="http://creativecommons.org/licenses/publicdomain/" /><dc:publisher><cc:Agent
             rdf:about="http://openclipart.org/"><dc:title>Openclipart</dc:title></cc:Agent></dc:publisher><dc:title></dc:title><dc:date>2012-06-19T16:36:27</dc:date><dc:description /><dc:source>https://openclipart.org/detail/170778/retro-diamonds---abstract-009-by-tikigiki-170778</dc:source><dc:creator><cc:Agent><dc:title>TikiGiki</dc:title></cc:Agent></dc:creator><dc:subject><rdf:Bag><rdf:li>abstract</rdf:li><rdf:li>design</rdf:li><rdf:li>diamond</rdf:li><rdf:li>diamonds</rdf:li><rdf:li>free form</rdf:li><rdf:li>freeform</rdf:li><rdf:li>retro</rdf:li><rdf:li>shape</rdf:li><rdf:li>shapes</rdf:li><rdf:li>sign</rdf:li></rdf:Bag></dc:subject></cc:Work><cc:License
         rdf:about="http://creativecommons.org/licenses/publicdomain/"><cc:permits
           rdf:resource="http://creativecommons.org/ns#Reproduction" /><cc:permits
           rdf:resource="http://creativecommons.org/ns#Distribution" /><cc:permits
           rdf:resource="http://creativecommons.org/ns#DerivativeWorks" /></cc:License></rdf:RDF></metadata><g
     id="g3877"><path
       d="m 40.959555,28.771217 c 1.27999,3e-6 2.21332,-0.146663 2.8,-0.44 0.58665,-0.319996 0.87999,-0.853329 0.88,-1.6 -1e-5,-0.693327 -0.32001,-1.26666 -0.96,-1.72 -0.61335,-0.453326 -1.64001,-0.946658 -3.08,-1.48 -0.88001,-0.319991 -1.69334,-0.653324 -2.44,-1 -0.720007,-0.373323 -1.346673,-0.799989 -1.880002,-1.28 -0.533337,-0.479989 -0.960003,-1.053321 -1.28,-1.72 -0.293336,-0.69332 -0.440002,-1.533319 -0.44,-2.52 -2e-6,-1.919983 0.706664,-3.426648 2.12,-4.52 1.413332,-1.119979 3.333322,-1.679979 5.760002,-1.68 1.22665,2.1e-5 2.39999,0.120021 3.52,0.36 1.11998,0.213354 1.95998,0.426687 2.52,0.64 l -0.88,3.92 c -0.53335,-0.239983 -1.21335,-0.453316 -2.04,-0.64 -0.82668,-0.213316 -1.78668,-0.319983 -2.88,-0.32 -0.98668,1.7e-5 -1.78668,0.173351 -2.4,0.52 -0.61334,0.320017 -0.92001,0.826683 -0.92,1.52 -1e-5,0.346682 0.0533,0.653348 0.16,0.92 0.13332,0.266681 0.34666,0.520014 0.64,0.76 0.29332,0.213347 0.67999,0.440013 1.16,0.68 0.47999,0.213346 1.06665,0.440013 1.76,0.68 1.14665,0.426679 2.11999,0.853345 2.92,1.28 0.79998,0.400011 1.45332,0.866677 1.96,1.4 0.53332,0.506676 0.91998,1.093342 1.16,1.76 0.23998,0.666674 0.35998,1.466673 0.36,2.4 -2e-5,2.000004 -0.74668,3.520002 -2.24,4.56 -1.46668,1.013333 -3.57335,1.519999 -6.32,1.52 -1.84001,-10e-7 -3.32001,-0.16 -4.440002,-0.48 -1.120003,-0.293333 -1.906669,-0.533333 -2.36,-0.72 l 0.84,-4.04 c 0.719997,0.293338 1.573329,0.573337 2.560002,0.84 1.01333,0.26667 2.15999,0.400003 3.44,0.4"
       style="font-size:40px;font-style:normal;font-variant:normal;font-weight:500;font-stretch:normal;text-align:end;line-height:125%;letter-spacing:0px;word-spacing:0px;text-anchor:end;fill:#000000;fill-opacity:1;stroke:none;font-family:Ubuntu;-inkscape-font-specification:Ubuntu Medium"
       id="path3800"
       inkscape:connector-curvature="0" /><path
       d="m 52.840805,21.811217 c 0,-1.546655 0.24,-2.986653 0.72,-4.32 0.47999,-1.359984 1.15999,-2.533316 2.04,-3.52 0.90666,-0.986647 1.99999,-1.75998 3.28,-2.32 1.27999,-0.559979 2.71999,-0.839979 4.32,-0.84 1.97332,2.1e-5 3.83998,0.360021 5.6,1.08 l -1.04,3.96 c -0.56002,-0.239983 -1.20002,-0.439983 -1.92,-0.6 -0.69335,-0.159983 -1.44002,-0.239983 -2.24,-0.24 -1.89335,1.7e-5 -3.33334,0.600017 -4.32,1.8 -0.98668,1.173348 -1.48001,2.840013 -1.48,5 -10e-6,2.080008 0.46666,3.73334 1.4,4.96 0.93332,1.200004 2.50665,1.800004 4.72,1.8 0.82665,4e-6 1.63998,-0.08 2.44,-0.24 0.79998,-0.159996 1.49331,-0.359996 2.08,-0.6 l 0.68,4 c -0.53335,0.266667 -1.34669,0.506667 -2.44,0.72 -1.06668,0.213333 -2.17335,0.319999 -3.32,0.32 -1.78668,-10e-7 -3.34668,-0.266667 -4.68,-0.8 -1.30668,-0.559999 -2.40001,-1.319998 -3.28,-2.28 -0.85334,-0.986663 -1.49334,-2.146662 -1.92,-3.48 -0.42667,-1.359993 -0.64,-2.826658 -0.64,-4.4"
       style="font-size:40px;font-style:normal;font-variant:normal;font-weight:500;font-stretch:normal;text-align:end;line-height:125%;letter-spacing:0px;word-spacing:0px;text-anchor:end;fill:#000000;fill-opacity:1;stroke:none;font-family:Ubuntu;-inkscape-font-specification:Ubuntu Medium"
       id="path3802"
       inkscape:connector-curvature="0" /><path
       d="m 77.787055,32.251217 -4.84,0 0,-20.92 4.84,0 0,20.92 m 0.52,-27.0400003 c -1e-5,0.906693 -0.29334,1.626692 -0.88,2.16 -0.58668,0.533358 -1.28001,0.800024 -2.08,0.8 -0.82667,2.4e-5 -1.53334,-0.266642 -2.12,-0.8 -0.58667,-0.533308 -0.88,-1.253307 -0.88,-2.16 0,-0.933305 0.29333,-1.666638 0.88,-2.2 0.58666,-0.533304 1.29333,-0.79997 2.12,-0.8 0.79999,3e-5 1.49332,0.266696 2.08,0.8 0.58666,0.533362 0.87999,1.266695 0.88,2.2"
       style="font-size:40px;font-style:normal;font-variant:normal;font-weight:500;font-stretch:normal;text-align:end;line-height:125%;letter-spacing:0px;word-spacing:0px;text-anchor:end;fill:#000000;fill-opacity:1;stroke:none;font-family:Ubuntu;-inkscape-font-specification:Ubuntu Medium"
       id="path3804"
       inkscape:connector-curvature="0" /><g
       id="g3872"><path
         inkscape:connector-curvature="0"
         id="path3806"
         style="font-size:40px;font-style:normal;font-variant:normal;font-weight:500;font-stretch:normal;text-align:end;line-height:125%;letter-spacing:0px;word-spacing:0px;text-anchor:end;fill:#b2ce41;fill-opacity:1;stroke:none;font-family:Ubuntu;-inkscape-font-specification:Ubuntu Medium"
         d="m 88.762675,19.491217 c 0.61333,-0.639987 1.26666,-1.319986 1.96,-2.04 0.69333,-0.746651 1.37332,-1.479984 2.04,-2.2 0.66666,-0.746649 1.29332,-1.453315 1.88,-2.12 0.61332,-0.693314 1.13332,-1.293313 1.56,-1.8 l 5.720005,0 c -1.33335,1.493353 -2.746685,3.040018 -4.240005,4.64 -1.46668,1.600015 -2.94668,3.160013 -4.44,4.68 0.79999,0.666678 1.63999,1.48001 2.52,2.44 0.87999,0.933342 1.73332,1.933341 2.56,3 0.82665,1.066672 1.59998,2.133337 2.320005,3.2 0.71998,1.066669 1.31998,2.053334 1.8,2.96 l -5.600005,0 c -0.48001,-0.826666 -1.04001,-1.693332 -1.68,-2.6 -0.61334,-0.906663 -1.28001,-1.786662 -2,-2.64 -0.72001,-0.853327 -1.45334,-1.653326 -2.2,-2.4 -0.74667,-0.773325 -1.48001,-1.426658 -2.2,-1.96 l 0,9.6 -4.84,0 0,-30.2400003 4.84,-0.8 0,18.2800003" /><path
         inkscape:connector-curvature="0"
         id="path3808"
         style="font-size:40px;font-style:normal;font-variant:normal;font-weight:500;font-stretch:normal;text-align:end;line-height:125%;letter-spacing:0px;word-spacing:0px;text-anchor:end;fill:#b2ce41;fill-opacity:1;stroke:none;font-family:Ubuntu;-inkscape-font-specification:Ubuntu Medium"
         d="m 110.83393,32.251217 -4.84,0 0,-20.92 4.84,0 0,20.92 m 0.52,-27.0400003 c -1e-5,0.906693 -0.29334,1.626692 -0.88,2.16 -0.58667,0.533358 -1.28,0.800024 -2.08,0.8 -0.82667,2.4e-5 -1.53333,-0.266642 -2.12,-0.8 -0.58667,-0.533308 -0.88,-1.253307 -0.88,-2.16 0,-0.933305 0.29333,-1.666638 0.88,-2.2 0.58667,-0.533304 1.29333,-0.79997 2.12,-0.8 0.8,3e-5 1.49333,0.266696 2.08,0.8 0.58666,0.533362 0.87999,1.266695 0.88,2.2" /><path
         inkscape:connector-curvature="0"
         id="path3810"
         style="font-size:40px;font-style:normal;font-variant:normal;font-weight:500;font-stretch:normal;text-align:end;line-height:125%;letter-spacing:0px;word-spacing:0px;text-anchor:end;fill:#b2ce41;fill-opacity:1;stroke:none;font-family:Ubuntu;-inkscape-font-specification:Ubuntu Medium"
         d="m 116.72956,5.8112167 4.84,-0.8 0,6.3200003 7.44,0 0,4.04 -7.44,0 0,8.52 c -10e-6,1.680007 0.26666,2.880005 0.8,3.6 0.53332,0.720004 1.43999,1.080004 2.72,1.08 0.87999,4e-6 1.65332,-0.09333 2.32,-0.28 0.69332,-0.186663 1.23998,-0.359996 1.64,-0.52 l 0.8,3.84 c -0.56002,0.24 -1.29335,0.48 -2.2,0.72 -0.90668,0.266666 -1.97335,0.4 -3.2,0.4 -1.49334,0 -2.74668,-0.2 -3.76,-0.6 -0.98667,-0.399999 -1.77334,-0.973332 -2.36,-1.72 -0.58667,-0.773331 -1.00001,-1.69333 -1.24,-2.76 -0.24001,-1.093328 -0.36001,-2.333326 -0.36,-3.72 l 0,-18.1200003" /></g></g><g
     id="g3850"
     transform="translate(-56.520694,-38.233673)"><path
       d="m 57.455248,96.04489 c -2e-6,-1.546655 0.239998,-2.986653 0.72,-4.32 0.479997,-1.359984 1.159996,-2.533316 2.04,-3.52 0.906661,-0.986647 1.999993,-1.75998 3.28,-2.32 1.279991,-0.559979 2.719989,-0.839979 4.32,-0.84 1.973319,2.1e-5 3.839984,0.360021 5.6,1.08 l -1.04,3.96 c -0.560016,-0.239983 -1.200016,-0.439983 -1.92,-0.6 -0.693348,-0.159983 -1.440014,-0.239983 -2.24,-0.24 -1.893344,1.7e-5 -3.333343,0.600017 -4.32,1.8 -0.986674,1.173348 -1.480007,2.840013 -1.48,5 -7e-6,2.080008 0.466659,3.73334 1.4,4.96 0.933324,1.2 2.506656,1.8 4.72,1.8 0.826653,0 1.639985,-0.08 2.44,-0.24 0.799984,-0.16 1.493316,-0.36 2.08,-0.6 l 0.68,4 c -0.533351,0.26667 -1.346684,0.50667 -2.44,0.72 -1.066682,0.21333 -2.173347,0.32 -3.32,0.32 -1.786678,0 -3.346676,-0.26667 -4.68,-0.8 -1.306673,-0.56 -2.400006,-1.32 -3.28,-2.28 -0.853337,-0.98666 -1.493337,-2.14666 -1.92,-3.48 -0.426669,-1.359993 -0.640002,-2.826658 -0.64,-4.4"
       style="font-size:40px;font-style:normal;font-variant:normal;font-weight:500;font-stretch:normal;text-align:end;line-height:125%;letter-spacing:0px;word-spacing:0px;text-anchor:end;fill:#000000;fill-opacity:1;stroke:none;font-family:Ubuntu;-inkscape-font-specification:Ubuntu Medium"
       id="path3812"
       inkscape:connector-curvature="0" /><path
       d="m 89.441498,89.92489 c -0.400015,-0.133317 -0.960014,-0.26665 -1.68,-0.4 -0.693346,-0.159983 -1.506679,-0.239983 -2.44,-0.24 -0.533344,1.7e-5 -1.106677,0.05335 -1.72,0.16 -0.586675,0.106684 -1.000008,0.200017 -1.24,0.28 l 0,16.76 -4.84,0 0,-19.92 c 0.933329,-0.346646 2.093328,-0.666646 3.48,-0.96 1.413325,-0.319979 2.973324,-0.479979 4.68,-0.48 0.319988,2.1e-5 0.693321,0.02669 1.12,0.08 0.426654,0.02669 0.85332,0.08002 1.28,0.16 0.426652,0.05335 0.839985,0.133354 1.24,0.24 0.399985,0.08002 0.719984,0.160021 0.96,0.24 l -0.84,4.08"
       style="font-size:40px;font-style:normal;font-variant:normal;font-weight:500;font-stretch:normal;text-align:end;line-height:125%;letter-spacing:0px;word-spacing:0px;text-anchor:end;fill:#000000;fill-opacity:1;stroke:none;font-family:Ubuntu;-inkscape-font-specification:Ubuntu Medium"
       id="path3814"
       inkscape:connector-curvature="0" /><path
       d="m 98.495248,106.48489 -4.84,0 0,-20.92 4.84,0 0,20.92 m 0.52,-27.04 c -9e-6,0.906693 -0.293342,1.626692 -0.88,2.16 -0.586674,0.533358 -1.280007,0.800024 -2.08,0.8 -0.826672,2.4e-5 -1.533338,-0.266642 -2.12,-0.8 -0.58667,-0.533308 -0.880003,-1.253307 -0.88,-2.16 -3e-6,-0.933305 0.29333,-1.666638 0.88,-2.2 0.586662,-0.533304 1.293328,-0.79997 2.12,-0.8 0.799993,3e-5 1.493326,0.266696 2.08,0.8 0.586658,0.533362 0.879991,1.266695 0.88,2.2"
       style="font-size:40px;font-style:normal;font-variant:normal;font-weight:500;font-stretch:normal;text-align:end;line-height:125%;letter-spacing:0px;word-spacing:0px;text-anchor:end;fill:#000000;fill-opacity:1;stroke:none;font-family:Ubuntu;-inkscape-font-specification:Ubuntu Medium"
       id="path3816"
       inkscape:connector-curvature="0" /><path
       d="m 104.39087,80.04489 4.84,-0.8 0,6.32 7.44,0 0,4.04 -7.44,0 0,8.52 c 0,1.680007 0.26666,2.88001 0.8,3.6 0.53333,0.72 1.43999,1.08 2.72,1.08 0.87999,0 1.65332,-0.0933 2.32,-0.28 0.69332,-0.18666 1.23999,-0.36 1.64,-0.52 l 0.8,3.84 c -0.56001,0.24 -1.29335,0.48 -2.2,0.72 -0.90668,0.26667 -1.97334,0.4 -3.2,0.4 -1.49334,0 -2.74667,-0.2 -3.76,-0.6 -0.98667,-0.4 -1.77334,-0.97333 -2.36,-1.72 -0.58667,-0.77333 -1,-1.69333 -1.24,-2.76 -0.24,-1.09333 -0.36,-2.333326 -0.36,-3.72 l 0,-18.12"
       style="font-size:40px;font-style:normal;font-variant:normal;font-weight:500;font-stretch:normal;text-align:end;line-height:125%;letter-spacing:0px;word-spacing:0px;text-anchor:end;fill:#000000;fill-opacity:1;stroke:none;font-family:Ubuntu;-inkscape-font-specification:Ubuntu Medium"
       id="path3818"
       inkscape:connector-curvature="0" /><path
       d="m 119.799,96.12489 c 0,-1.839988 0.26666,-3.45332 0.8,-4.84 0.55999,-1.38665 1.29333,-2.533316 2.2,-3.44 0.90666,-0.933314 1.94666,-1.626646 3.12,-2.08 1.17332,-0.479979 2.37332,-0.719979 3.6,-0.72 2.87998,2.1e-5 5.11998,0.893354 6.72,2.68 1.62664,1.786684 2.43998,4.453348 2.44,8 -2e-5,0.266677 -0.0134,0.573344 -0.04,0.92 -2e-5,0.32001 -0.0134,0.613343 -0.04,0.88 l -13.8,0 c 0.13332,1.680007 0.71999,2.98667 1.76,3.92 1.06665,0.90667 2.59999,1.36 4.6,1.36 1.17332,0 2.23998,-0.10666 3.2,-0.32 0.98665,-0.21333 1.75998,-0.44 2.32,-0.68 l 0.64,3.96 c -0.26669,0.13333 -0.64002,0.28 -1.12,0.44 -0.45335,0.13333 -0.98669,0.25333 -1.6,0.36 -0.58668,0.13333 -1.22668,0.24 -1.92,0.32 -0.69335,0.08 -1.40002,0.12 -2.12,0.12 -1.84001,0 -3.44001,-0.26667 -4.8,-0.8 -1.36001,-0.56 -2.48001,-1.32 -3.36,-2.28 -0.88001,-0.98666 -1.53334,-2.13333 -1.96,-3.44 -0.42667,-1.333326 -0.64,-2.786658 -0.64,-4.36 m 14.04,-2.16 c -2e-5,-0.666653 -0.0933,-1.29332 -0.28,-1.88 -0.18668,-0.613318 -0.46668,-1.133318 -0.84,-1.56 -0.34668,-0.453317 -0.78668,-0.799983 -1.32,-1.04 -0.50668,-0.266649 -1.12001,-0.399983 -1.84,-0.4 -0.74668,1.7e-5 -1.40001,0.146684 -1.96,0.44 -0.56001,0.266683 -1.04001,0.626683 -1.44,1.08 -0.37334,0.453349 -0.66668,0.973348 -0.88,1.56 -0.21334,0.58668 -0.36001,1.18668 -0.44,1.8 l 9,0"
       style="font-size:40px;font-style:normal;font-variant:normal;font-weight:500;font-stretch:normal;text-align:end;line-height:125%;letter-spacing:0px;word-spacing:0px;text-anchor:end;fill:#000000;fill-opacity:1;stroke:none;font-family:Ubuntu;-inkscape-font-specification:Ubuntu Medium"
       id="path3820"
       inkscape:connector-curvature="0" /><path
       d="m 155.6915,89.92489 c -0.40002,-0.133317 -0.96002,-0.26665 -1.68,-0.4 -0.69335,-0.159983 -1.50668,-0.239983 -2.44,-0.24 -0.53335,1.7e-5 -1.10668,0.05335 -1.72,0.16 -0.58668,0.106684 -1.00001,0.200017 -1.24,0.28 l 0,16.76 -4.84,0 0,-19.92 c 0.93333,-0.346646 2.09333,-0.666646 3.48,-0.96 1.41332,-0.319979 2.97332,-0.479979 4.68,-0.48 0.31999,2.1e-5 0.69332,0.02669 1.12,0.08 0.42665,0.02669 0.85332,0.08002 1.28,0.16 0.42665,0.05335 0.83998,0.133354 1.24,0.24 0.39998,0.08002 0.71998,0.160021 0.96,0.24 l -0.84,4.08"
       style="font-size:40px;font-style:normal;font-variant:normal;font-weight:500;font-stretch:normal;text-align:end;line-height:125%;letter-spacing:0px;word-spacing:0px;text-anchor:end;fill:#000000;fill-opacity:1;stroke:none;font-family:Ubuntu;-inkscape-font-specification:Ubuntu Medium"
       id="path3822"
       inkscape:connector-curvature="0" /><path
       d="m 164.74525,106.48489 -4.84,0 0,-20.92 4.84,0 0,20.92 m 0.52,-27.04 c -1e-5,0.906693 -0.29334,1.626692 -0.88,2.16 -0.58668,0.533358 -1.28001,0.800024 -2.08,0.8 -0.82667,2.4e-5 -1.53334,-0.266642 -2.12,-0.8 -0.58667,-0.533308 -0.88,-1.253307 -0.88,-2.16 0,-0.933305 0.29333,-1.666638 0.88,-2.2 0.58666,-0.533304 1.29333,-0.79997 2.12,-0.8 0.79999,3e-5 1.49332,0.266696 2.08,0.8 0.58666,0.533362 0.87999,1.266695 0.88,2.2"
       style="font-size:40px;font-style:normal;font-variant:normal;font-weight:500;font-stretch:normal;text-align:end;line-height:125%;letter-spacing:0px;word-spacing:0px;text-anchor:end;fill:#000000;fill-opacity:1;stroke:none;font-family:Ubuntu;-inkscape-font-specification:Ubuntu Medium"
       id="path3824"
       inkscape:connector-curvature="0" /><path
       d="m 178.24087,103.08489 c 1.49332,0 2.62666,-0.08 3.4,-0.24 l 0,-5.36 c -0.26668,-0.07999 -0.65334,-0.159991 -1.16,-0.24 -0.50668,-0.07999 -1.06668,-0.119991 -1.68,-0.12 -0.53334,9e-6 -1.08001,0.04001 -1.64,0.12 -0.53334,0.08001 -1.02667,0.226676 -1.48,0.44 -0.42667,0.213342 -0.77334,0.520008 -1.04,0.92 -0.26667,0.373341 -0.4,0.85334 -0.4,1.44 0,1.14667 0.36,1.94667 1.08,2.4 0.71999,0.42667 1.69333,0.64 2.92,0.64 m -0.4,-18.04 c 1.59999,2.1e-5 2.94666,0.200021 4.04,0.6 1.09332,0.40002 1.95999,0.96002 2.6,1.68 0.66665,0.720018 1.13332,1.600018 1.4,2.64 0.29332,1.013349 0.43998,2.133348 0.44,3.36 l 0,12.68 c -0.74668,0.16 -1.88001,0.34667 -3.4,0.56 -1.49334,0.24 -3.18668,0.36 -5.08,0.36 -1.25334,0 -2.4,-0.12 -3.44,-0.36 -1.04,-0.24 -1.93334,-0.62667 -2.68,-1.16 -0.72,-0.53333 -1.29333,-1.22666 -1.72,-2.08 -0.4,-0.85333 -0.6,-1.90666 -0.6,-3.16 0,-1.199992 0.22667,-2.213325 0.68,-3.04 0.48,-0.826656 1.12,-1.493322 1.92,-2 0.8,-0.533321 1.72,-0.906654 2.76,-1.12 1.06666,-0.239987 2.17333,-0.359987 3.32,-0.36 0.53333,1.3e-5 1.09332,0.04001 1.68,0.12 0.58666,0.05335 1.21332,0.160013 1.88,0.32 l 0,-0.8 c -1e-5,-0.559986 -0.0667,-1.093319 -0.2,-1.6 -0.13334,-0.506651 -0.37334,-0.946651 -0.72,-1.32 -0.32001,-0.399983 -0.76001,-0.70665 -1.32,-0.92 -0.53334,-0.213316 -1.21334,-0.319983 -2.04,-0.32 -1.12001,1.7e-5 -2.14667,0.08002 -3.08,0.24 -0.93334,0.160017 -1.69334,0.346683 -2.28,0.56 l -0.6,-3.92 c 0.61333,-0.213313 1.50666,-0.426646 2.68,-0.64 1.17333,-0.213312 2.42666,-0.319979 3.76,-0.32"
       style="font-size:40px;font-style:normal;font-variant:normal;font-weight:500;font-stretch:normal;text-align:end;line-height:125%;letter-spacing:0px;word-spacing:0px;text-anchor:end;fill:#000000;fill-opacity:1;stroke:none;font-family:Ubuntu;-inkscape-font-specification:Ubuntu Medium"
       id="path3826"
       inkscape:connector-curvature="0" /></g></svg>